<svg xmlns="http://www.w3.org/2000/svg" width="32" height="32" viewBox="0 0 24 24" fill="none">
  <path d="M 5 3 C 5 2.44772 5.44772 2 6 2 L 12.5 2 C 12.7652 2 13.0196 2.10536 13.2071 2.29289 L 17.7071 6.79289 C 17.8946 6.98043 18 7.23478 18 7.5 L 18 21 C 18 21.5523 17.5523 22 17 22 L 6 22 C 5.44772 22 5 21.5523 5 21 Z" stroke="#5a9e6f" stroke-width="1.6" stroke-linecap="round" stroke-linejoin="round"/>
  <path d="M 12.5 2 L 12.5 7 L 17.5 7" stroke="#5a9e6f" stroke-width="1.6" stroke-linecap="round" stroke-linejoin="round"/>
  <line x1="8" y1="10" x2="11.5" y2="10" stroke="#5a9e6f" stroke-width="1.5" stroke-linecap="round"/>
  <line x1="8" y1="13.5" x2="11" y2="13.5" stroke="#5a9e6f" stroke-width="1.5" stroke-linecap="round"/>
  <line x1="8" y1="17" x2="12" y2="17" stroke="#5a9e6f" stroke-width="1.5" stroke-linecap="round"/>
  <path d="M 13 10 L 15 10 L 17.5 7.5 L 19 7.5" stroke="#5a9e6f" stroke-width="1.5" stroke-linecap="round" stroke-linejoin="round"/>
  <circle cx="20.5" cy="7.5" r="1.25" fill="#5a9e6f"/>
  <path d="M 12.5 13.5 L 19.5 13.5" stroke="#5a9e6f" stroke-width="1.5" stroke-linecap="round" stroke-linejoin="round"/>
  <circle cx="21" cy="13.5" r="1.25" fill="#5a9e6f"/>
  <path d="M 13.5 17 L 15.5 17 L 17.5 19.5 L 19 19.5" stroke="#5a9e6f" stroke-width="1.5" stroke-linecap="round" stroke-linejoin="round"/>
  <circle cx="20.5" cy="19.5" r="1.25" fill="#5a9e6f"/>
</svg>
